HIERARCHY
ROOT SimulationBone
{
	OFFSET 0.000000 0.000000 0.000000
	CHANNELS 6 Xposition Yposition Zposition Zrotation Yrotation Xrotation 
	JOINT Hips
	{
		OFFSET 0.000000 0.000000 0.000000
		CHANNELS 6 Xposition Yposition Zposition Zrotation Yrotation Xrotation 
		JOINT LeftUpLeg
		{
			OFFSET 0.103461 1.857818 10.548512
			CHANNELS 3 Zrotation Yrotation Xrotation
			JOINT LeftLeg
			{
				OFFSET 43.500000 -0.000019 0.000004
				CHANNELS 3 Zrotation Yrotation Xrotation
				JOINT LeftFoot
				{
					OFFSET 42.372200 0.000011 0.000000
					CHANNELS 3 Zrotation Yrotation Xrotation
					JOINT LeftToe
					{
						OFFSET 17.300009 0.000002 0.000004
						CHANNELS 3 Zrotation Yrotation Xrotation
						End Site
						{
							OFFSET 0.000000 0.000000 0.000000
						}
					}
				}
			}
		}
		JOINT RightUpLeg
		{
			OFFSET 0.103461 1.857838 -10.548504
			CHANNELS 3 Zrotation Yrotation Xrotation
			JOINT RightLeg
			{
				OFFSET 43.500042 -0.000038 0.000017
				CHANNELS 3 Zrotation Yrotation Xrotation
				JOINT RightFoot
				{
					OFFSET 42.372253 -0.000008 0.000015
					CHANNELS 3 Zrotation Yrotation Xrotation
					JOINT RightToe
					{
						OFFSET 17.299995 -0.000004 0.000004
						CHANNELS 3 Zrotation Yrotation Xrotation
						End Site
						{
							OFFSET 0.000000 0.000000 0.000000
						}
					}
				}
			}
		}
		JOINT Spine
		{
			OFFSET 6.901970 -2.603733 -0.000002
			CHANNELS 3 Zrotation Yrotation Xrotation
			JOINT Spine1
			{
				OFFSET 12.588097 0.000016 0.000005
				CHANNELS 3 Zrotation Yrotation Xrotation
				JOINT Spine2
				{
					OFFSET 12.343206 -0.000008 -0.000008
					CHANNELS 3 Zrotation Yrotation Xrotation
					JOINT Neck
					{
						OFFSET 25.832890 -0.000023 0.000008
						CHANNELS 3 Zrotation Yrotation Xrotation
						JOINT Head
						{
							OFFSET 11.766625 0.000019 -0.000006
							CHANNELS 3 Zrotation Yrotation Xrotation
							End Site
							{
								OFFSET 0.000000 0.000000 0.000000
							}
						}
					}
					JOINT LeftShoulder
					{
						OFFSET 19.745903 -1.480385 6.000111
						CHANNELS 3 Zrotation Yrotation Xrotation
						JOINT LeftArm
						{
							OFFSET 11.284122 -0.000021 -0.000025
							CHANNELS 3 Zrotation Yrotation Xrotation
							JOINT LeftForeArm
							{
								OFFSET 33.000057 -0.000001 0.000032
								CHANNELS 3 Zrotation Yrotation Xrotation
								JOINT LeftHand
								{
									OFFSET 25.200003 0.000023 0.000006
									CHANNELS 3 Zrotation Yrotation Xrotation
									End Site
									{
										OFFSET 0.000000 0.000000 0.000000
									}
								}
							}
						}
					}
					JOINT RightShoulder
					{
						OFFSET 19.746098 -1.480366 -6.000072
						CHANNELS 3 Zrotation Yrotation Xrotation
						JOINT RightArm
						{
							OFFSET 11.284136 -0.000004 -0.000006
							CHANNELS 3 Zrotation Yrotation Xrotation
							JOINT RightForeArm
							{
								OFFSET 33.000092 0.000029 0.000002
								CHANNELS 3 Zrotation Yrotation Xrotation
								JOINT RightHand
								{
									OFFSET 25.199776 0.000140 0.000420
									CHANNELS 3 Zrotation Yrotation Xrotation
									End Site
									{
										OFFSET 0.000000 0.000000 0.000000
									}
								}
							}
						}
					}
				}
			}
		}
	}
}
MOTION
Frames: 10
Frame Time: 0.016667
209.917731 0.000000 -312.814181 0.000000 269.017358 0.000000 1.634276 92.689049 -0.147716 94.694160 -1.009764 179.912384 -176.366563 -1.019315 176.947580 -9.446413 -2.467862 -1.919175 81.501805 1.347262 -0.251093 21.454550 0.003089 0.000000 -178.908869 2.403580 177.591598 -15.667575 1.669746 0.595430 83.989503 -0.429484 0.166911 21.454558 -0.003102 -0.000017 6.602101 -0.452766 0.216844 3.189752 -0.911307 0.421341 2.871632 -0.908606 0.426846 15.348618 5.578446 -2.506846 -17.787129 0.959965 -2.880996 -148.427221 -75.856950 -33.737443 -10.098183 59.383220 25.535879 -42.465068 -22.246640 2.000552 -11.221709 -18.398436 23.548124 -175.653696 73.400440 5.847455 -1.026419 -59.008960 -28.129348 -41.736918 22.656917 -2.034540 -0.917667 14.203129 -29.639294 
209.973092 0.000000 -312.783796 0.000000 268.900879 0.000000 1.632774 92.688946 -0.142413 94.682367 -0.992332 179.905313 -176.339685 -1.004229 176.871849 -9.444260 -2.465818 -1.949987 81.541499 1.372158 -0.235095 21.454549 0.003094 0.000001 -178.908469 2.419020 177.548154 -15.643769 1.668798 0.547755 83.978700 -0.393833 0.179237 21.454559 -0.003116 -0.000018 6.595161 -0.459492 0.246383 3.175636 -0.925519 0.480297 2.857527 -0.922459 0.485889 15.300748 5.446104 -2.752226 -17.922997 1.261084 -3.255423 -148.662714 -75.873384 -33.496424 -10.273749 60.250813 27.201288 -40.471732 -21.834643 1.916822 -10.796268 -16.755199 23.822526 -176.062165 73.365980 5.427711 -1.241007 -59.289647 -29.574191 -39.827558 22.037860 -1.938861 0.202377 13.711409 -27.829878 
210.027009 0.000000 -312.754966 0.000000 268.799017 0.000000 1.630114 92.690102 -0.133788 94.650541 -0.969961 179.907743 -176.341865 -0.995492 176.819350 -9.449264 -2.460715 -1.980812 81.579731 1.396137 -0.222775 21.454553 0.003097 0.000001 -178.919305 2.427907 177.499036 -15.604599 1.675605 0.517601 83.960939 -0.370673 0.190477 21.454560 -0.003115 -0.000017 6.582924 -0.463349 0.271332 3.150946 -0.933839 0.530189 2.832836 -0.930482 0.535830 15.286170 5.309541 -2.981028 -18.062210 1.493312 -3.589430 -148.871430 -75.931269 -33.281405 -10.343698 61.027977 28.734940 -38.615317 -21.360804 1.836202 -9.783331 -15.008352 23.270069 -176.301990 73.314072 5.180877 -1.261670 -59.456699 -30.858261 -38.307368 21.439115 -1.860419 1.489594 12.974503 -26.237010 
210.079695 0.000000 -312.727745 0.000000 268.710923 0.000000 1.627122 92.691746 -0.121735 94.608879 -0.944594 179.921548 -176.363290 -0.992696 176.786677 -9.463262 -2.454699 -2.008594 81.617734 1.417563 -0.212246 21.454556 0.003097 0.000001 -178.933932 2.430581 177.447649 -15.557400 1.686504 0.503802 83.940625 -0.358827 0.202110 21.454560 -0.003108 -0.000016 6.568352 -0.465875 0.289361 3.121639 -0.939291 0.566295 2.803521 -0.935722 0.571967 15.300745 5.188400 -3.187724 -18.204053 1.666904 -3.879968 -149.090467 -76.016735 -33.054987 -10.352203 61.712448 30.105622 -36.836795 -20.821474 1.755729 -8.323295 -13.179270 21.967775 -176.442065 73.241013 5.036160 -1.181865 -59.488410 -32.040815 -37.074173 20.830262 -1.789677 2.877117 12.002298 -24.707065 
210.131364 0.000000 -312.702185 0.000000 268.635740 0.000000 1.624618 92.693108 -0.106152 94.567575 -0.918208 179.948616 -176.394157 -0.995402 176.770432 -9.488086 -2.449915 -2.030275 81.656741 1.434799 -0.201623 21.454557 0.003095 -0.000000 -178.944905 2.427397 177.397402 -15.509502 1.697823 0.505189 83.922165 -0.357119 0.215617 21.454560 -0.003105 -0.000016 6.554409 -0.468609 0.298142 3.093667 -0.944915 0.583896 2.775541 -0.941240 0.589597 15.340187 5.102259 -3.366758 -18.348036 1.792133 -4.124025 -149.356878 -76.115767 -32.779817 -10.346260 62.303119 31.278632 -35.077511 -20.212620 1.673545 -6.550591 -11.276224 19.982062 -176.550800 73.142655 4.923260 -1.096663 -59.365345 -33.179224 -36.027536 20.180306 -1.720985 4.295572 10.800940 -23.085257 
210.182229 0.000000 -312.678339 0.000000 268.572608 0.000000 1.623366 92.693448 -0.087272 94.536006 -0.892934 179.989100 -176.424809 -1.002480 176.765900 -9.524576 -2.448082 -2.043117 81.697680 1.446383 -0.189160 21.454553 0.003091 -0.000001 -178.946188 2.419456 177.350578 -15.468769 1.706562 0.520118 83.909987 -0.364117 0.232214 21.454559 -0.003111 -0.000018 6.543753 -0.472905 0.296264 3.072359 -0.953403 0.580114 2.754231 -0.949742 0.585860 15.399433 5.065069 -3.515037 -18.490192 1.882058 -4.322376 -149.703665 -76.214901 -32.422658 -10.373227 62.796500 32.228032 -33.287941 -19.527578 1.588618 -4.609069 -9.311650 17.398561 -176.692695 73.017648 4.775897 -1.090784 -59.083273 -34.322516 -35.072709 19.472141 -1.652167 5.660920 9.385920 -21.287405 
210.232505 0.000000 -312.656260 0.000000 268.520662 0.000000 1.623892 92.692146 -0.066641 94.520288 -0.871411 -179.963823 -176.446162 -1.010102 176.763083 -9.569605 -2.449233 -2.045663 81.740254 1.451566 -0.173663 21.454550 0.003089 -0.000001 -178.937391 2.410792 177.304963 -15.445214 1.712435 0.545080 83.908620 -0.377358 0.252049 21.454558 -0.003115 -0.000020 6.537828 -0.479354 0.285988 3.060572 -0.966011 0.559441 2.742444 -0.962466 0.565258 15.470729 5.068483 -3.639530 -18.612081 1.960819 -4.490826 -150.146517 -76.303378 -31.967854 -10.474837 63.176693 32.972020 -31.453266 -18.750046 1.499051 -2.693354 -7.341364 14.410936 -176.919918 72.876496 4.540613 -1.202291 -58.692831 -35.491663 -34.132309 18.745145 -1.583621 6.854973 7.832165 -19.512655 
210.282405 0.000000 -312.636001 0.000000 268.479034 0.000000 1.626340 92.688798 -0.046023 94.523785 -0.855883 -179.918329 -176.451490 -1.014148 176.752663 -9.619046 -2.452779 -2.037795 81.783621 1.450403 -0.154441 21.454551 0.003092 0.000001 -178.920643 2.405602 177.258672 -15.447424 1.715557 0.575399 83.921418 -0.393671 0.274830 21.454557 -0.003108 -0.000018 6.537338 -0.488248 0.270605 3.059676 -0.983404 0.528444 2.741546 -0.980047 0.534365 15.545278 5.100064 -3.749973 -18.693080 2.050135 -4.647237 -150.697268 -76.374513 -31.403526 -10.680187 63.430026 33.549957 -29.575847 -17.871752 1.404956 -0.974976 -5.447850 11.247183 -177.268356 72.732139 4.180661 -1.443128 -58.257813 -36.692989 -33.147365 18.049918 -1.516692 7.786001 6.237282 -18.013183 
210.332142 0.000000 -312.617616 0.000000 268.446852 0.000000 1.629575 92.683739 -0.026732 94.542167 -0.846441 -179.881046 -176.442952 -1.012002 176.733344 -9.668740 -2.457365 -2.023488 81.825993 1.445456 -0.132258 21.454553 0.003095 0.000002 -178.902503 2.405801 177.215624 -15.476140 1.714885 0.603590 83.946951 -0.408068 0.299584 21.454558 -0.003099 -0.000016 6.541238 -0.499438 0.253849 3.067566 -1.005365 0.494623 2.749434 -1.002218 0.500681 15.612479 5.153390 -3.857115 -18.717707 2.150942 -4.802466 -151.373683 -76.435495 -30.711281 -10.977922 63.564095 34.038066 -27.690573 -16.927205 1.309941 0.454429 -3.704011 8.228476 -177.725019 72.596157 3.709447 -1.781384 -57.838559 -37.888506 -32.115938 17.425983 -1.454436 8.446220 4.679867 -17.009266 
210.381931 0.000000 -312.601157 0.000000 268.423242 0.000000 1.632265 92.677522 -0.009692 94.569161 -0.842317 -179.856888 -176.425386 -1.002072 176.707100 -9.715194 -2.461647 -2.007681 81.865587 1.439864 -0.108290 21.454552 0.003092 0.000000 -178.889713 2.412259 177.180377 -15.528744 1.709547 0.622975 83.982160 -0.416127 0.325293 21.454559 -0.003098 -0.000016 6.548129 -0.512639 0.238973 3.081437 -1.031391 0.464509 2.763307 -1.028427 0.470732 15.661737 5.223750 -3.970586 -18.675796 2.259920 -4.964526 -152.185176 -76.495772 -29.881205 -11.339136 63.594063 34.521160 -25.845455 -15.964859 1.216720 1.559327 -2.185602 5.676839 -178.260806 72.477621 3.156944 -2.173771 -57.486602 -39.022606 -31.055747 16.901802 -1.398777 8.866386 3.230221 -16.664577 
